<?xml version="1.0" encoding="UTF-8"?>
<!DOCTYPE svg PUBLIC "-//W3C//DTD SVG 1.1//EN" "http://www.w3.org/Graphics/SVG/1.1/DTD/svg11.dtd">
<!-- Creator: CorelDRAW -->
<svg xmlns="http://www.w3.org/2000/svg" xml:space="preserve" width="43.3492mm" height="43.3492mm" version="1.1" style="shape-rendering:geometricPrecision; text-rendering:geometricPrecision; image-rendering:optimizeQuality; fill-rule:evenodd; clip-rule:evenodd"
viewBox="0 0 4335 4335"
 xmlns:xlink="http://www.w3.org/1999/xlink">
 <defs>
  <style type="text/css">
   <![CDATA[
    .fil0 {fill:url(#id0)}
   ]]>
  </style>
  <linearGradient id="id0" gradientUnits="userSpaceOnUse" x1="2167.45" y1="3618.36" x2="2167.45" y2="716.58">
   <stop offset="0" style="stop-opacity:1; stop-color:#1AA8DC"/>
   <stop offset="0.490196" style="stop-opacity:1; stop-color:#AE3B89"/>
   <stop offset="1" style="stop-opacity:1; stop-color:#F26270"/>
  </linearGradient>
 </defs>
 <g id="Layer_x0020_1">
  <metadata id="CorelCorpID_0Corel-Layer"/>
  <path class="fil0" d="M423 2993l0 -1959c0,-177 140,-317 313,-317l2856 0c176,0 317,140 317,317l0 1959 -1390 0 -703 0 -1393 0zm3658 625l-3828 0c-140,0 -253,-112 -253,-250l0 -193c0,-36 28,-64 63,-64l1634 0 0 176c0,99 78,176 176,176l589 0c95,0 172,-77 176,-176l0 -176 1634 0c35,0 63,28 63,64l0 193c-4,138 -116,250 -254,250zm-309 -190l-120 0c-35,0 -64,-28 -64,-63 0,-35 29,-64 64,-64l120 0c35,0 63,29 63,64 0,35 -28,63 -63,63zm-293 0l-119 0c-36,0 -64,-28 -64,-63 0,-35 28,-64 64,-64l119 0c35,0 64,29 64,64 0,35 -29,63 -64,63zm-296 0l-119 0c-36,0 -64,-28 -64,-63 0,-35 28,-64 64,-64l119 0c36,0 64,29 64,64 0,35 -32,63 -64,63zm-1362 -317l0 176c0,29 24,53 52,53l585 0c28,0 53,-24 53,-53l0 -176 -690 0zm1243 -1877l-662 28c73,70 113,162 119,261 5,101 -31,196 -93,269l229 -10c2,-1 3,-1 5,-2 9,-2 18,-2 26,0l397 -18c70,-3 137,-35 186,-88 46,-52 71,-119 67,-186 -7,-145 -130,-257 -274,-254l0 0zm-1237 53l-580 25c-145,7 -261,134 -254,278 4,70 35,134 88,183 53,49 120,74 190,70l606 -27c60,-8 115,-39 158,-85 50,-53 74,-120 71,-190 -7,-145 -130,-257 -275,-254 -1,0 -3,0 -4,0zm309 518l47 -2c124,-27 218,-143 212,-273 -4,-70 -32,-137 -85,-183 -53,-49 -120,-74 -190,-70l-3 -1c67,67 111,157 116,258 1,103 -35,198 -97,271zm-90 1039c-28,0 -53,-22 -60,-46l-81 -338 -225 271c-18,21 -50,28 -74,18 -25,-11 -39,-43 -32,-71l162 -732 -458 21c-7,0 -14,0 -17,0 -99,0 -191,-35 -264,-102 -78,-71 -124,-166 -127,-268 -11,-211 158,-394 370,-405l566 -24c6,-3 14,-4 22,-4 15,-1 30,0 45,1l228 -10c5,-1 10,-2 15,-2 10,0 20,0 30,0l911 -38 0 0c214,-11 398,154 405,369 7,102 -29,201 -99,275 -70,77 -165,123 -271,127l-337 15 171 774c7,28 -7,56 -31,67 -25,14 -57,7 -74,-18l-226 -271 -81 338c-7,31 -31,53 -60,53 0,0 0,0 0,0 -28,0 -52,-22 -59,-50l-144 -648 -145 652c-4,24 -28,46 -60,46 0,0 0,0 0,0zm582 -938l-302 14 132 586 46 -198c7,-21 24,-38 46,-45 21,-7 45,3 59,21l141 169 -122 -547zm-765 36l-113 514 141 -169c14,-17 39,-24 60,-21 21,7 39,25 46,46l49 194 128 -579 -10 0c-4,1 -8,1 -12,1 -4,4 -4,4 -7,4 -7,0 -13,-1 -18,-3l-242 11c-7,0 -14,1 -22,2z"/>
 </g>
</svg>
