<?xml version="1.0" encoding="UTF-8"?>
<!DOCTYPE svg PUBLIC "-//W3C//DTD SVG 1.1//EN" "http://www.w3.org/Graphics/SVG/1.1/DTD/svg11.dtd">
<!-- Creator: CorelDRAW -->
<svg xmlns="http://www.w3.org/2000/svg" xml:space="preserve" width="11.1111in" height="11.1111in" version="1.1" style="shape-rendering:geometricPrecision; text-rendering:geometricPrecision; image-rendering:optimizeQuality; fill-rule:evenodd; clip-rule:evenodd"
viewBox="0 0 11111 11111"
 xmlns:xlink="http://www.w3.org/1999/xlink">
 <defs>
  <style type="text/css">
   <![CDATA[
    .fil1 {fill:white}
    .fil0 {fill:url(#id0)}
   ]]>
  </style>
  <linearGradient id="id0" gradientUnits="userSpaceOnUse" x1="5555.56" y1="0.00787402" x2="5555.56" y2="11111.1">
   <stop offset="0" style="stop-opacity:1; stop-color:#6666CC"/>
   <stop offset="0.509804" style="stop-opacity:1; stop-color:fuchsia"/>
   <stop offset="1" style="stop-opacity:1; stop-color:#FF6600"/>
  </linearGradient>
 </defs>
 <circle class="fil0" cx="5556" cy="5556" r="5556"/>
 <g id="Layer_x0020_1">
  <metadata id="CorelCorpID_0Corel-Layer"/>
  <path class="fil1" d="M8111 9109l-2201 0 -101 -1292 109 -166 167 204c13,15 31,24 51,24 3,0 6,0 9,0 21,-1 39,-17 48,-35l684 -1339c135,15 265,45 391,89 186,64 354,157 498,275 146,120 261,260 342,415 85,164 128,338 128,517l0 1183c0,69 -56,125 -125,125zm-4238 -4765c-16,0 -32,-3 -48,-9l-375 -157 -375 157c-40,16 -86,11 -121,-14 -36,-26 -55,-68 -52,-111l30 -405 -264 -311c-28,-33 -37,-79 -23,-120 14,-41 48,-73 89,-83l396 -94 214 -349c22,-37 63,-60 106,-60 44,0 84,23 107,60l213 349 396 95c42,10 76,41 89,82 14,42 5,87 -23,120l-264 311 30 405c3,44 -16,85 -52,111 -21,15 -47,23 -73,23zm4212 0c-17,0 -33,-3 -48,-9l-375 -157 -376 157c-40,16 -86,11 -121,-14 -35,-26 -54,-68 -51,-111l29 -405 -263 -311c-28,-33 -37,-79 -24,-120 14,-41 48,-73 90,-83l396 -94 213 -349c22,-37 63,-60 106,-60 44,0 84,23 107,60l213 349 396 94c42,10 76,42 89,83 14,41 5,87 -23,120l-264 311 30 405c3,43 -16,85 -52,111 -21,15 -47,23 -72,23zm-2106 -789c-16,0 -32,-3 -47,-10l-376 -154 -376 154c-40,17 -86,11 -121,-14 -35,-25 -54,-67 -51,-110l30 -406 -264 -311c-28,-33 -37,-78 -23,-119 14,-42 48,-73 90,-83l396 -95 213 -345c22,-37 63,-60 106,-60 43,0 84,23 106,60l213 345 396 95c43,10 77,41 90,83 14,41 5,86 -23,119l-264 311 30 406c3,43 -17,85 -52,110 -21,16 -47,24 -73,24zm-313 2922l-220 0c-147,0 -291,-30 -426,-87 -130,-56 -248,-135 -349,-237 -101,-100 -180,-218 -236,-348 -58,-136 -87,-279 -87,-426l0 -127 0 -486 0 -800c0,-179 146,-325 325,-325l1223 0c116,0 229,23 336,69 104,43 196,106 276,185 165,165 256,383 256,614l0 743c0,3 0,6 0,9l0 118c0,147 -30,290 -87,426 -56,130 -135,247 -237,348 -101,101 -218,181 -348,237 -136,57 -279,87 -426,87zm-940 -1586l-128 0 0 361 0 127c0,467 380,848 848,848l220 0c467,0 848,-381 848,-848l0 -127 0 -361 -715 0c-272,0 -437,-131 -527,-241 -3,-3 -6,-7 -9,-11 -2,4 -5,7 -8,11 -90,110 -254,241 -529,241zm1239 2612c-1,-2 -3,-4 -4,-5l-313 -383 795 -622 222 0c24,0 48,1 72,2l-614 1201 -158 -193zm-133 42l-276 418 -131 -198 0 0c-1,-2 -3,-4 -4,-6l-141 -214 276 -338 276 338zm-682 -46c-1,1 -1,1 -2,2l-159 195 -614 -1201c23,-1 47,-1 71,-1l223 0 794 621 -313 384zm44 151l109 166 -102 1293 -2201 0c-69,0 -125,-56 -125,-125l0 -1183c0,-179 43,-353 128,-516 81,-156 196,-296 343,-416 144,-118 311,-210 497,-275 126,-44 257,-73 391,-89l684 1339c9,18 27,34 48,35 3,0 7,0 10,0 19,0 38,-9 50,-24l168 -205zm-350 -1184l7 -26c39,22 80,42 122,60 150,64 310,97 473,97l220 0c163,0 323,-33 473,-97 42,-18 83,-38 122,-60l7 25 -712 557 -712 -556zm936 2643l-447 0 73 -1127 90 127 6 8c12,18 32,29 53,29l1 0 0 0 1 0c20,0 40,-10 52,-27l98 -137 73 1127z"/>
 </g>
</svg>
