<svg xmlns="http://www.w3.org/2000/svg" xml:space="preserve" width="1.70666in" height="1.70666in" version="1.1" style="shape-rendering:geometricPrecision; text-rendering:geometricPrecision; image-rendering:optimizeQuality; fill-rule:evenodd; clip-rule:evenodd" viewBox="0 0 1706.66 1706.66" xmlns:xlink="http://www.w3.org/1999/xlink" xmlns:xodm="http://www.corel.com/coreldraw/odm/2003">
<defs>
<style type="text/css">
   
    .fil0 {fill:url(#id0)}
   
  </style>
<linearGradient id="id0" gradientUnits="userSpaceOnUse" x1="0.13" y1="850.67" x2="1706.52" y2="850.67">
<stop offset="0" style="stop-opacity: 1; stop-color: rgb(217, 83, 181);" id="id_102"></stop>
<stop offset="1" style="stop-opacity: 1; stop-color: rgb(237, 14, 51);" id="id_103"></stop>
</linearGradient>
</defs>
<g id="Layer_x0020_1">
<metadata id="CorelCorpID_0Corel-Layer"></metadata>
<path class="fil0" d="M812.24 497.21c-24.23,0 -67.31,4.56 -67.31,-36.66 0,-42.05 45.93,-36.66 67.31,-36.66 48.28,0 48.28,73.32 0,73.32zm788.52 1088.17c-9.86,0 -120.69,-52.85 -138.78,-61.07l-130.51 59.28c-14.04,6.35 -29.87,-5.11 -28.13,-20.44l16.04 -142.45 -96.71 -105.8c-10.48,-11.45 -4.42,-29.98 10.74,-33.09l140.43 -28.74 70.76 -124.69c7.64,-13.47 27.14,-13.47 34.78,0l70.75 124.69 140.44 28.74c15.15,3.1 21.21,21.64 10.74,33.09l-96.71 105.8 16.04 142.45c1.35,11.91 -8.06,22.22 -19.87,22.22zm-1494.85 0c-11.76,0 -21.2,-10.4 -19.87,-22.23l16.04 -142.45 -96.71 -105.8c-10.46,-11.44 -4.44,-29.97 10.75,-33.09l140.44 -28.74 70.75 -124.69c7.65,-13.47 27.14,-13.47 34.78,0l70.74 124.69 140.43 28.74c15.15,3.1 21.22,21.63 10.75,33.09l-96.71 105.8 16.06 142.45c1.73,15.34 -14.09,26.8 -28.13,20.44l-130.51 -59.28c-18.1,8.22 -128.93,61.07 -138.8,61.07zm886.21 -121.78c-9.86,0 -120.69,-52.85 -138.78,-61.06l-130.52 59.28c-14.04,6.37 -29.86,-5.12 -28.13,-20.44l16.06 -142.46 -96.71 -105.8c-10.46,-11.44 -4.44,-29.97 10.75,-33.09l140.43 -28.74 70.76 -124.69c7.65,-13.47 27.13,-13.46 34.78,0l70.77 124.69 140.43 28.74c15.15,3.1 21.21,21.64 10.74,33.09l-96.72 105.81 16.04 142.45c1.35,11.94 -8.08,22.22 -19.89,22.22zm30.88 -1013.35c-15.55,-32.5 -21.66,-79.03 -25.85,-99.55 -77.89,15.39 -161.17,13.7 -264.74,-5.28 -9.5,46.61 -9.93,69.78 -25.54,91.53l0.58 87.27c35.34,5.21 32.16,33.12 32.16,59.52 0,67.45 54.89,122.35 122.34,122.35 66.09,0 122.34,-54.33 122.34,-122.35 0,-41.37 2.39,-56.77 37.67,-59.91l1.04 -73.58zm-386.18 -20.94c-33.26,-110.52 -17.19,-211.44 44,-267.71 36.2,-33.26 119.13,-78.22 270.73,-10.13 60.51,-14.59 105.7,-7.06 134.31,22.51 42.07,43.5 44.07,131.7 5.96,269.18 2.2,4.67 3.47,10.17 3.47,16.51 0,71.77 15.61,132.85 -38.3,136.55 -4.1,53.26 -28.07,100.6 -64.94,133.81 -0.92,34.53 11.36,55.69 20.11,72.19 20.91,-0.02 44.2,0.48 51.14,0.48 124.22,0 225.28,101.06 225.28,225.28l0 198.03c0,11.04 -8.97,20.01 -20.01,20.01l-179.09 0 27.82 -30.44c27.76,-30.37 11.65,-79.98 -28.66,-88.24l-125.6 -25.71 -63.3 -111.52c-20.39,-35.93 -72.36,-35.93 -92.75,0l-63.28 111.52 -125.6 25.71c-40.31,8.25 -56.43,57.86 -28.67,88.24l27.82 30.44 -166.63 0c-11.04,0 -20,-8.97 -20,-20l0 -198.03c0,-124.22 101.07,-225.28 225.28,-225.28 8.06,0 35.91,-0.67 60.11,-0.57 1.04,-1.49 2.2,-2.95 3.52,-4.37 16.93,-18.21 16.37,-42.12 16.6,-64.01 -39.37,-33.41 -65.09,-82.44 -69.26,-137.83 -19.69,-2.61 -32.76,-15.35 -32.76,-36.01 0,-20.93 -2.61,-117.37 2.7,-130.61zm170.19 342.45c-5.81,27.86 -13.78,47.83 -22.67,61.65 28.23,29.93 67.31,73.36 75.9,82.62 9.37,-9.27 52.14,-52.9 83.04,-82.94 -10.39,-17.15 -16.77,-40.49 -20.28,-63.19 -37.11,12.03 -78.37,12.7 -115.99,1.86zm56.07 -121.44c-56.06,0 -95.64,-39.33 -67.93,-72.69 6.37,-7.67 14.46,-13.04 24.66,-13.49 27.36,-1.22 32.4,25.69 67.94,5.17 41.71,-24.08 78.6,39.3 36.66,63.5 -18.8,10.85 -39.51,17.51 -61.33,17.51zm84.74 -153.09c-24.25,0 -67.3,4.54 -67.3,-36.66 0,-42.04 45.93,-36.66 67.3,-36.66 48.28,0 48.28,73.32 0,73.32z" id="id_101"></path>
</g>
</svg>